<?xml version="1.0" standalone="no"?>
<!DOCTYPE svg PUBLIC "-//W3C//DTD SVG 20010904//EN"
 "http://www.w3.org/TR/2001/REC-SVG-20010904/DTD/svg10.dtd">
<svg version="1.0" xmlns="http://www.w3.org/2000/svg"
 width="500.000000pt" height="120.000000pt" viewBox="0 0 500.000000 120.000000"
 preserveAspectRatio="xMidYMid meet">

<g transform="translate(0.000000,120.000000) scale(0.100000,-0.100000)"
fill="#000000" stroke="none">
<path d="M1505 1034 c-159 -46 -347 -100 -417 -120 l-128 -37 0 -242 0 -242
123 -102 122 -102 176 3 c173 3 176 3 217 31 57 37 99 98 112 161 6 29 9 109
8 179 l-3 126 -370 -144 c-203 -79 -370 -143 -371 -142 -1 1 168 143 375 315
442 368 481 401 461 401 -8 0 -145 -38 -305 -85z"/>
<path d="M200 528 c0 -140 2 -157 24 -204 13 -28 39 -63 58 -77 66 -51 95 -57
270 -57 l163 0 115 96 c63 53 116 99 118 103 2 7 -717 291 -737 291 -7 0 -11
-52 -11 -152z"/>
</g>
</svg>